<svg width="100%" height="100%" viewBox="0 0 300 420" xmlns="http://www.w3.org/2000/svg" preserveAspectRatio="xMidYMid meet">
  <defs>
    <linearGradient id="goldGradient" x1="0" y1="0" x2="0.8" y2="1">
      <stop offset="0%" stop-color="#f0c838"></stop>
      <stop offset="50%" stop-color="#d4af37"></stop>
      <stop offset="100%" stop-color="#fffbe6"></stop>
    </linearGradient>
    <linearGradient id="shine" x1="0" y1="0" x2="1" y2="1">
      <stop offset="0%" stop-color="rgba(255,255,255,0.3)"></stop>
      <stop offset="100%" stop-color="rgba(255,255,255,0)"></stop>
    </linearGradient>
    <clipPath id="shieldShape">
      <path d="M20,0 H280 Q300,0 300,20 V300 Q300,360 150,420 Q0,360 0,300 V20 Q0,0 20,0 Z"></path>
    </clipPath>
  </defs>

  <!-- Fondo -->
  <rect width="300" height="420" fill="url(#goldGradient)" clip-path="url(#shieldShape)"></rect>

  <!-- Detalles diagonales -->
  <g clip-path="url(#shieldShape)" opacity="0.2">
    <polygon points="0,100 300,0 300,30 0,130" fill="white"></polygon>
    <polygon points="0,200 300,100 300,130 0,230" fill="white"></polygon>
    <polygon points="0,300 300,200 300,230 0,330" fill="white"></polygon>
  </g>

  <!-- Brillo -->
  <rect width="300" height="420" fill="url(#shine)" clip-path="url(#shieldShape)"></rect>
  
  <!-- Contorno -->
  <path d="M20,0 H280 Q300,0 300,20 V300 Q300,360 150,420 Q0,360 0,300 V20 Q0,0 20,0 Z" fill="none" stroke="#c89c27" stroke-width="4"></path>
</svg>
